<svg preserveAspectRatio="none" overflow="visible" style="display: block;" width="18" height="18" viewBox="0 0 18 18" fill="none" xmlns="http://www.w3.org/2000/svg">
<g id="clarity:star-solid">
<path id="Vector" d="M17 8.39C17.1858 8.25156 17.3237 8.05844 17.3942 7.83771C17.4647 7.61697 17.4644 7.3797 17.3933 7.15916C17.3222 6.93861 17.1838 6.74586 16.9976 6.60792C16.8114 6.46999 16.5867 6.39378 16.355 6.39L11.855 6.22C11.8329 6.21847 11.8117 6.21058 11.7939 6.19727C11.7762 6.18397 11.7627 6.16581 11.755 6.145L10.2 1.945C10.1219 1.73132 9.97997 1.54681 9.7935 1.41645C9.60704 1.28609 9.38502 1.21617 9.1575 1.21617C8.92998 1.21617 8.70796 1.28609 8.5215 1.41645C8.33503 1.54681 8.19313 1.73132 8.115 1.945L6.565 6.16C6.55734 6.18081 6.54382 6.19897 6.52608 6.21227C6.50834 6.22558 6.48712 6.23347 6.465 6.235L1.965 6.405C1.7333 6.40878 1.5086 6.48499 1.3224 6.62292C1.13619 6.76086 0.99783 6.95361 0.926705 7.17416C0.85558 7.3947 0.855261 7.63197 0.925792 7.85271C0.996324 8.07344 1.13417 8.26656 1.32 8.405L4.85 11.18C4.86767 11.1939 4.88087 11.2127 4.88798 11.234C4.89509 11.2553 4.89579 11.2783 4.89 11.3L3.675 15.605C3.61204 15.8242 3.61814 16.0575 3.69247 16.2731C3.7668 16.4888 3.90575 16.6763 4.09042 16.8101C4.2751 16.944 4.49652 17.0177 4.72458 17.0213C4.95263 17.0248 5.17625 16.958 5.365 16.83L9.095 14.33C9.11337 14.3173 9.13517 14.3105 9.1575 14.3105C9.17983 14.3105 9.20163 14.3173 9.22 14.33L12.95 16.83C13.1362 16.9624 13.359 17.0336 13.5875 17.0336C13.816 17.0336 14.0388 16.9624 14.225 16.83C14.4097 16.6974 14.5488 16.5108 14.6231 16.2959C14.6974 16.081 14.7033 15.8484 14.64 15.63L13.415 11.31C13.4085 11.2883 13.4089 11.2652 13.416 11.2437C13.4232 11.2222 13.4368 11.2035 13.455 11.19L17 8.39Z" fill="#FDB649"/>
</g>
</svg>
