<svg preserveAspectRatio="none" overflow="visible" style="display: block;" width="32" height="32" viewBox="0 0 32 32" fill="none" xmlns="http://www.w3.org/2000/svg">
<g id="Icons/money">
<path id="Vector" d="M17.8461 17.4359C16.9145 17.4359 16.1261 17.1132 15.4808 16.4679C14.8355 15.8226 14.5129 15.0342 14.5129 14.1026C14.5129 13.171 14.8355 12.3825 15.4808 11.7372C16.1261 11.0919 16.9145 10.7693 17.8461 10.7693C18.7778 10.7693 19.5662 11.0919 20.2115 11.7372C20.8568 12.3825 21.1794 13.171 21.1794 14.1026C21.1794 15.0342 20.8568 15.8226 20.2115 16.4679C19.5662 17.1132 18.7778 17.4359 17.8461 17.4359ZM8.07697 22.0512C7.55474 22.0512 7.10368 21.8613 6.72377 21.4814C6.34386 21.1015 6.1539 20.6504 6.1539 20.1282V8.07697C6.1539 7.55475 6.34386 7.10368 6.72377 6.72377C7.10368 6.34386 7.55474 6.1539 8.07697 6.1539H27.6153C28.1375 6.1539 28.5886 6.34386 28.9685 6.72377C29.3484 7.10368 29.5384 7.55475 29.5384 8.07697V20.1282C29.5384 20.6504 29.3484 21.1015 28.9685 21.4814C28.5886 21.8613 28.1375 22.0512 27.6153 22.0512H8.07697ZM10.5641 20.5385H25.1282C25.1282 19.7333 25.4104 19.0491 25.9747 18.4859C26.539 17.9227 27.2226 17.641 28.0256 17.641V10.5641C27.2205 10.5641 26.5363 10.2819 25.9731 9.71763C25.4098 9.15332 25.1282 8.46968 25.1282 7.6667H10.5641C10.5641 8.47181 10.2819 9.15599 9.71763 9.71923C9.15332 10.2825 8.46968 10.5641 7.6667 10.5641V17.641C8.47181 17.641 9.15599 17.9232 9.71923 18.4875C10.2825 19.0518 10.5641 19.7355 10.5641 20.5385ZM25.564 25.7435H4.3847C3.86248 25.7435 3.41141 25.5536 3.0315 25.1737C2.65159 24.7937 2.46163 24.3427 2.46163 23.8205V10.1283H3.9744V23.8205C3.9744 23.923 4.01714 24.017 4.10263 24.1025C4.1881 24.188 4.28212 24.2307 4.3847 24.2307H25.564V25.7435ZM8.07697 20.5385H7.6667V7.6667H8.07697C7.96586 7.6667 7.8697 7.7073 7.7885 7.7885C7.7073 7.8697 7.6667 7.96586 7.6667 8.07697V20.1282C7.6667 20.2393 7.7073 20.3354 7.7885 20.4166C7.8697 20.4979 7.96586 20.5385 8.07697 20.5385Z" fill="#FF8000"/>
</g>
</svg>
